<svg width="720" height="720" viewBox="0 0 720 720" fill="none" xmlns="http://www.w3.org/2000/svg">
<g clip-path="url(#clip0_6921_357)">
<rect width="720" height="720" rx="120" fill="#6095FF"/>
<circle opacity="0.1" cx="73" cy="73" r="18" fill="white"/>
<circle opacity="0.1" cx="114" cy="73" r="18" fill="white"/>
<circle opacity="0.1" cx="155" cy="73" r="18" fill="white"/>
<circle opacity="0.2" cx="196" cy="73" r="18" fill="white"/>
<circle opacity="0.1" cx="237" cy="73" r="18" fill="white"/>
<circle opacity="0.1" cx="278" cy="73" r="18" fill="white"/>
<circle opacity="0.1" cx="319" cy="73" r="18" fill="white"/>
<circle opacity="0.05" cx="360" cy="73" r="18" fill="white"/>
<circle opacity="0.1" cx="401" cy="73" r="18" fill="white"/>
<circle opacity="0.1" cx="442" cy="73" r="18" fill="white"/>
<circle opacity="0.1" cx="483" cy="73" r="18" fill="white"/>
<circle opacity="0.1" cx="524" cy="73" r="18" fill="white"/>
<circle opacity="0.05" cx="565" cy="73" r="18" fill="white"/>
<circle opacity="0.1" cx="606" cy="73" r="18" fill="white"/>
<circle opacity="0.05" cx="647" cy="73" r="18" fill="white"/>
<circle opacity="0.1" cx="73" cy="114" r="18" fill="white"/>
<circle cx="114" cy="114" r="18" fill="white"/>
<circle cx="155" cy="114" r="18" fill="white"/>
<circle cx="196" cy="114" r="18" fill="white"/>
<circle cx="237" cy="114" r="18" fill="white"/>
<circle cx="278" cy="114" r="18" fill="white"/>
<circle cx="319" cy="114" r="18" fill="white"/>
<circle opacity="0.1" cx="360" cy="114" r="18" fill="white"/>
<circle cx="401" cy="114" r="18" fill="white"/>
<circle cx="442" cy="114" r="18" fill="white"/>
<circle cx="483" cy="114" r="18" fill="white"/>
<circle cx="524" cy="114" r="18" fill="white"/>
<circle cx="565" cy="114" r="18" fill="white"/>
<circle opacity="0.1" cx="606" cy="114" r="18" fill="white"/>
<circle opacity="0.1" cx="647" cy="114" r="18" fill="white"/>
<circle opacity="0.1" cx="73" cy="155" r="18" fill="white"/>
<circle cx="114" cy="155" r="18" fill="white"/>
<circle opacity="0.1" cx="155" cy="155" r="18" fill="white"/>
<circle opacity="0.2" cx="196" cy="155" r="18" fill="white"/>
<circle opacity="0.1" cx="237" cy="155" r="18" fill="white"/>
<circle cx="319" cy="155" r="18" fill="white"/>
<circle opacity="0.1" cx="360" cy="155" r="18" fill="white"/>
<circle cx="401" cy="155" r="18" fill="white"/>
<circle opacity="0.1" cx="442" cy="155" r="18" fill="white"/>
<circle opacity="0.1" cx="483" cy="155" r="18" fill="white"/>
<circle opacity="0.05" cx="524" cy="155" r="18" fill="white"/>
<circle opacity="0.1" cx="565" cy="155" r="18" fill="white"/>
<circle cx="606" cy="155" r="18" fill="white"/>
<circle opacity="0.1" cx="647" cy="155" r="18" fill="white"/>
<circle opacity="0.1" cx="73" cy="196" r="18" fill="white"/>
<circle cx="114" cy="196" r="18" fill="white"/>
<circle opacity="0.1" cx="155" cy="196" r="18" fill="white"/>
<circle opacity="0.1" cx="196" cy="196" r="18" fill="white"/>
<circle opacity="0.1" cx="237" cy="196" r="18" fill="white"/>
<circle cx="319" cy="196" r="18" fill="white"/>
<circle opacity="0.1" cx="360" cy="196" r="18" fill="white"/>
<circle cx="401" cy="196" r="18" fill="white"/>
<circle opacity="0.1" cx="442" cy="196" r="18" fill="white"/>
<circle opacity="0.1" cx="483" cy="196" r="18" fill="white"/>
<circle opacity="0.05" cx="524" cy="196" r="18" fill="white"/>
<circle opacity="0.1" cx="565" cy="196" r="18" fill="white"/>
<circle cx="606" cy="196" r="18" fill="white"/>
<circle opacity="0.1" cx="647" cy="196" r="18" fill="white"/>
<circle opacity="0.1" cx="73" cy="237" r="18" fill="white"/>
<circle cx="114" cy="237" r="18" fill="white"/>
<circle opacity="0.1" cx="155" cy="237" r="18" fill="white"/>
<circle opacity="0.1" cx="196" cy="237" r="18" fill="white"/>
<circle opacity="0.1" cx="237" cy="237" r="18" fill="white"/>
<circle cx="319" cy="237" r="18" fill="white"/>
<circle opacity="0.1" cx="360" cy="237" r="18" fill="white"/>
<circle cx="401" cy="237" r="18" fill="white"/>
<circle opacity="0.1" cx="442" cy="237" r="18" fill="white"/>
<circle opacity="0.1" cx="483" cy="237" r="18" fill="white"/>
<circle opacity="0.1" cx="524" cy="237" r="18" fill="white"/>
<circle opacity="0.1" cx="565" cy="237" r="18" fill="white"/>
<circle cx="606" cy="237" r="18" fill="white"/>
<circle opacity="0.1" cx="647" cy="237" r="18" fill="white"/>
<circle opacity="0.2" cx="73" cy="278" r="18" fill="white"/>
<circle cx="114" cy="278" r="18" fill="white"/>
<circle opacity="0.1" cx="155" cy="278" r="18" fill="white"/>
<circle opacity="0.1" cx="196" cy="278" r="18" fill="white"/>
<circle opacity="0.1" cx="237" cy="278" r="18" fill="white"/>
<circle opacity="0.1" cx="278" cy="278" r="18" fill="white"/>
<circle cx="319" cy="278" r="18" fill="white"/>
<circle opacity="0.1" cx="360" cy="278" r="18" fill="white"/>
<circle cx="401" cy="278" r="18" fill="white"/>
<circle opacity="0.1" cx="442" cy="278" r="18" fill="white"/>
<circle opacity="0.1" cx="483" cy="278" r="18" fill="white"/>
<circle opacity="0.1" cx="524" cy="278" r="18" fill="white"/>
<circle opacity="0.1" cx="565" cy="278" r="18" fill="white"/>
<circle cx="606" cy="278" r="18" fill="white"/>
<circle opacity="0.1" cx="647" cy="278" r="18" fill="white"/>
<circle opacity="0.1" cx="73" cy="319" r="18" fill="white"/>
<circle cx="114" cy="319" r="18" fill="white"/>
<circle opacity="0.1" cx="155" cy="319" r="18" fill="white"/>
<circle opacity="0.1" cx="196" cy="319" r="18" fill="white"/>
<circle opacity="0.1" cx="237" cy="319" r="18" fill="white"/>
<circle cx="278" cy="319" r="18" fill="white"/>
<circle opacity="0.1" cx="319" cy="319" r="18" fill="white"/>
<circle opacity="0.1" cx="360" cy="319" r="18" fill="white"/>
<circle cx="401" cy="319" r="18" fill="white"/>
<circle opacity="0.1" cx="442" cy="319" r="18" fill="white"/>
<circle opacity="0.1" cx="483" cy="319" r="18" fill="white"/>
<circle opacity="0.1" cx="524" cy="319" r="18" fill="white"/>
<circle opacity="0.1" cx="565" cy="319" r="18" fill="white"/>
<circle cx="606" cy="319" r="18" fill="white"/>
<circle opacity="0.1" cx="647" cy="319" r="18" fill="white"/>
<circle opacity="0.1" cx="73" cy="360" r="18" fill="white"/>
<circle cx="114" cy="360" r="18" fill="white"/>
<circle cx="155" cy="360" r="18" fill="white"/>
<circle cx="196" cy="360" r="18" fill="white"/>
<circle cx="237" cy="360" r="18" fill="white"/>
<circle opacity="0.1" cx="278" cy="360" r="18" fill="white"/>
<circle opacity="0.1" cx="319" cy="360" r="18" fill="white"/>
<circle opacity="0.1" cx="360" cy="360" r="18" fill="white"/>
<circle cx="401" cy="360" r="18" fill="white"/>
<circle opacity="0.1" cx="442" cy="360" r="18" fill="white"/>
<circle opacity="0.1" cx="483" cy="360" r="18" fill="white"/>
<circle opacity="0.1" cx="524" cy="360" r="18" fill="white"/>
<circle opacity="0.1" cx="565" cy="360" r="18" fill="white"/>
<circle cx="606" cy="360" r="18" fill="white"/>
<circle opacity="0.1" cx="647" cy="360" r="18" fill="white"/>
<circle opacity="0.1" cx="73" cy="401" r="18" fill="white"/>
<circle cx="114" cy="401" r="18" fill="white"/>
<circle opacity="0.1" cx="155" cy="401" r="18" fill="white"/>
<circle opacity="0.1" cx="196" cy="401" r="18" fill="white"/>
<circle opacity="0.1" cx="237" cy="401" r="18" fill="white"/>
<circle cx="278" cy="401" r="18" fill="white"/>
<circle opacity="0.1" cx="319" cy="401" r="18" fill="white"/>
<circle opacity="0.1" cx="360" cy="401" r="18" fill="white"/>
<circle cx="401" cy="401" r="18" fill="white"/>
<circle opacity="0.1" cx="442" cy="401" r="18" fill="white"/>
<circle opacity="0.1" cx="483" cy="401" r="18" fill="white"/>
<circle opacity="0.1" cx="524" cy="401" r="18" fill="white"/>
<circle opacity="0.1" cx="565" cy="401" r="18" fill="white"/>
<circle cx="606" cy="401" r="18" fill="white"/>
<circle opacity="0.1" cx="647" cy="401" r="18" fill="white"/>
<circle opacity="0.05" cx="73" cy="442" r="18" fill="white"/>
<circle cx="114" cy="442" r="18" fill="white"/>
<circle opacity="0.1" cx="155" cy="442" r="18" fill="white"/>
<circle opacity="0.1" cx="196" cy="442" r="18" fill="white"/>
<circle opacity="0.1" cx="237" cy="442" r="18" fill="white"/>
<circle opacity="0.1" cx="278" cy="442" r="18" fill="white"/>
<circle cx="319" cy="442" r="18" fill="white"/>
<circle opacity="0.1" cx="360" cy="442" r="18" fill="white"/>
<circle cx="401" cy="442" r="18" fill="white"/>
<circle opacity="0.1" cx="442" cy="442" r="18" fill="white"/>
<circle opacity="0.1" cx="483" cy="442" r="18" fill="white"/>
<circle opacity="0.1" cx="524" cy="442" r="18" fill="white"/>
<circle opacity="0.1" cx="565" cy="442" r="18" fill="white"/>
<circle cx="606" cy="442" r="18" fill="white"/>
<circle opacity="0.1" cx="647" cy="442" r="18" fill="white"/>
<circle opacity="0.2" cx="73" cy="483" r="18" fill="white"/>
<circle cx="114" cy="483" r="18" fill="white"/>
<circle opacity="0.1" cx="155" cy="483" r="18" fill="white"/>
<circle opacity="0.1" cx="196" cy="483" r="18" fill="white"/>
<circle opacity="0.1" cx="237" cy="483" r="18" fill="white"/>
<circle opacity="0.1" cx="278" cy="483" r="18" fill="white"/>
<circle cx="319" cy="483" r="18" fill="white"/>
<circle opacity="0.1" cx="360" cy="483" r="18" fill="white"/>
<circle cx="401" cy="483" r="18" fill="white"/>
<circle opacity="0.1" cx="442" cy="483" r="18" fill="white"/>
<circle opacity="0.1" cx="483" cy="483" r="18" fill="white"/>
<circle opacity="0.1" cx="524" cy="483" r="18" fill="white"/>
<circle opacity="0.1" cx="565" cy="483" r="18" fill="white"/>
<circle cx="606" cy="483" r="18" fill="white"/>
<circle opacity="0.1" cx="647" cy="483" r="18" fill="white"/>
<circle opacity="0.1" cx="73" cy="524" r="18" fill="white"/>
<circle cx="114" cy="524" r="18" fill="white"/>
<circle opacity="0.2" cx="155" cy="524" r="18" fill="white"/>
<circle opacity="0.1" cx="196" cy="524" r="18" fill="white"/>
<circle opacity="0.1" cx="237" cy="524" r="18" fill="white"/>
<circle opacity="0.1" cx="278" cy="524" r="18" fill="white"/>
<circle cx="319" cy="524" r="18" fill="white"/>
<circle opacity="0.1" cx="360" cy="524" r="18" fill="white"/>
<circle cx="401" cy="524" r="18" fill="white"/>
<circle opacity="0.1" cx="442" cy="524" r="18" fill="white"/>
<circle opacity="0.1" cx="483" cy="524" r="18" fill="white"/>
<circle opacity="0.2" cx="524" cy="524" r="18" fill="white"/>
<circle opacity="0.2" cx="565" cy="524" r="18" fill="white"/>
<circle cx="606" cy="524" r="18" fill="white"/>
<circle opacity="0.1" cx="647" cy="524" r="18" fill="white"/>
<circle opacity="0.05" cx="73" cy="565" r="18" fill="white"/>
<circle cx="114" cy="565" r="18" fill="white"/>
<circle opacity="0.1" cx="155" cy="565" r="18" fill="white"/>
<circle opacity="0.1" cx="196" cy="565" r="18" fill="white"/>
<circle opacity="0.1" cx="237" cy="565" r="18" fill="white"/>
<circle opacity="0.1" cx="278" cy="565" r="18" fill="white"/>
<circle cx="319" cy="565" r="18" fill="white"/>
<circle opacity="0.1" cx="360" cy="565" r="18" fill="white"/>
<circle cx="401" cy="565" r="18" fill="white"/>
<circle opacity="0.1" cx="442" cy="565" r="18" fill="white"/>
<circle opacity="0.1" cx="483" cy="565" r="18" fill="white"/>
<circle opacity="0.1" cx="524" cy="565" r="18" fill="white"/>
<circle opacity="0.1" cx="565" cy="565" r="18" fill="white"/>
<circle cx="606" cy="565" r="18" fill="white"/>
<circle opacity="0.1" cx="647" cy="565" r="18" fill="white"/>
<circle opacity="0.1" cx="73" cy="606" r="18" fill="white"/>
<circle cx="114" cy="606" r="18" fill="white"/>
<circle cx="155" cy="606" r="18" fill="white"/>
<circle cx="196" cy="606" r="18" fill="white"/>
<circle cx="237" cy="606" r="18" fill="white"/>
<circle cx="278" cy="606" r="18" fill="white"/>
<circle cx="319" cy="606" r="18" fill="white"/>
<circle opacity="0.2" cx="360" cy="606" r="18" fill="white"/>
<circle cx="401" cy="606" r="18" fill="white"/>
<circle cx="442" cy="606" r="18" fill="white"/>
<circle cx="483" cy="606" r="18" fill="white"/>
<circle cx="524" cy="606" r="18" fill="white"/>
<circle cx="565" cy="606" r="18" fill="white"/>
<circle opacity="0.1" cx="606" cy="606" r="18" fill="white"/>
<circle opacity="0.2" cx="647" cy="606" r="18" fill="white"/>
<circle opacity="0.1" cx="73" cy="647" r="18" fill="white"/>
<circle opacity="0.1" cx="114" cy="647" r="18" fill="white"/>
<circle opacity="0.1" cx="155" cy="647" r="18" fill="white"/>
<circle opacity="0.1" cx="196" cy="647" r="18" fill="white"/>
<circle opacity="0.1" cx="237" cy="647" r="18" fill="white"/>
<circle opacity="0.1" cx="278" cy="647" r="18" fill="white"/>
<circle opacity="0.1" cx="319" cy="647" r="18" fill="white"/>
<circle opacity="0.1" cx="360" cy="647" r="18" fill="white"/>
<circle opacity="0.1" cx="401" cy="647" r="18" fill="white"/>
<circle opacity="0.1" cx="442" cy="647" r="18" fill="white"/>
<circle opacity="0.1" cx="483" cy="647" r="18" fill="white"/>
<circle opacity="0.1" cx="524" cy="647" r="18" fill="white"/>
<circle opacity="0.1" cx="565" cy="647" r="18" fill="white"/>
<circle opacity="0.1" cx="606" cy="647" r="18" fill="white"/>
<circle opacity="0.1" cx="647" cy="647" r="18" fill="white"/>
</g>
<rect x="0.5" y="0.5" width="719" height="719" rx="119.5" stroke="black" stroke-opacity="0.1"/>
<defs>
<clipPath id="clip0_6921_357">
<rect width="720" height="720" rx="120" fill="white"/>
</clipPath>
</defs>
</svg>
