<svg width="48" height="48" viewBox="0 0 48 48" fill="none" xmlns="http://www.w3.org/2000/svg">
<circle cx="24" cy="24" r="24" fill="white"/>
<path d="M25.12 16.44V16.58C24.62 16.78 24.22 17.66 24.22 18.4V29.04C24.22 29.78 24.62 30.66 25.12 30.86V31H19.04V30.86C19.54 30.66 19.94 29.78 19.94 29.04V18.8L15.08 31H14.9L8.92 18.08V28.54C8.92 29.06 9.36 30.4 9.88 30.86V31H7.64V30.86C8.2 30.34 8.6 29.06 8.6 28.54V18.4C8.6 17.66 8.2 16.78 7.7 16.58V16.44H12.74L16.88 25.38L20.42 16.44H25.12ZM35.4891 20.04L39.7891 28.74C40.1891 29.48 40.5291 30.44 41.5491 30.86V31H35.4291V30.86C35.9491 30.66 35.9291 30.16 35.7691 29.78L32.9691 23.68L31.6291 25.62V29.04C31.6291 29.78 32.0291 30.66 32.5291 30.86V31H26.4491V30.86C26.9491 30.66 27.3491 29.78 27.3491 29.04V18.4C27.3491 17.66 26.9491 16.78 26.4491 16.58V16.44H32.5291V16.58C32.0291 16.78 31.6291 17.66 31.6291 18.4V25L36.1091 18.56C36.8291 17.54 36.1691 17 35.4091 16.58V16.44H38.8491V16.58C37.7891 17.12 37.2291 17.54 36.7891 18.16L35.4891 20.04Z" fill="black"/>
</svg>
