<svg width="24" height="24" viewBox="0 0 24 24" fill="none" xmlns="http://www.w3.org/2000/svg">
<g clip-path="url(#clip0_2819_5)">
<path d="M12.4451 0.00212107C10.4095 2.52285 8.64889 5.25365 7.19305 8.14812C7.00025 7.97981 6.81507 7.80296 6.63805 7.61812C6.25461 7.09014 5.85269 6.57582 5.43305 6.07612C4.91837 6.7204 4.49722 7.43411 4.18205 8.19612C3.41435 10.0747 2.92648 12.0558 2.73405 14.0761C2.61624 15.2431 2.73113 16.4219 3.07205 17.5441C4.38405 21.0241 6.86605 23.1371 10.5171 23.8811C13.5721 24.3191 16.2721 23.5481 18.6141 21.5691C21.2911 18.9791 21.9731 15.9351 20.6611 12.4371C19.8451 10.483 18.8446 8.61117 17.6731 6.84712C16.093 4.50546 14.4052 2.23835 12.6151 0.0531211C12.5919 0.0330644 12.5648 0.0181459 12.5355 0.00935368C12.5062 0.000561468 12.4754 -0.00190383 12.4451 0.00212107ZM12.1091 3.90812C13.8789 5.96107 15.4819 8.15203 16.9031 10.4601C17.3511 11.2271 17.7201 12.0301 18.0111 12.8701C18.6171 15.2561 17.9671 17.2241 16.0601 18.7741C14.2151 20.0721 12.1901 20.4571 9.98805 19.9301C7.61205 19.1931 6.23805 17.5951 5.86705 15.1361C5.77601 14.3722 5.85874 13.5976 6.10905 12.8701C6.46705 11.9621 6.89905 11.0961 7.40905 10.2691L8.85505 8.14812C9.94921 6.7421 11.0339 5.32873 12.1091 3.90812Z" fill="black"/>
</g>
<defs>
<clipPath id="clip0_2819_5">
<rect width="24" height="24" fill="white"/>
</clipPath>
</defs>
</svg>
