<svg width="837" height="837" viewBox="0 0 837 837" fill="none" xmlns="http://www.w3.org/2000/svg">
<path fill-rule="evenodd" clip-rule="evenodd" d="M569.609 278.143H419.847C411.888 278.143 405.437 271.69 405.437 263.731V227.704C405.437 219.745 411.888 213.293 419.847 213.293C478.908 213.293 532.147 238.226 569.609 278.143ZM569.609 559.15C532.147 599.067 478.908 624 419.847 624C411.888 624 405.437 617.548 405.437 609.589V573.562C405.437 565.603 411.888 559.15 419.847 559.15H569.609ZM618.016 472.687C611.601 496.26 601.095 518.146 587.305 537.535H419.847C411.888 537.535 405.437 531.082 405.437 523.124V487.098C405.437 479.139 411.888 472.687 419.847 472.687H618.016ZM622.655 386.222C624.329 396.784 625.201 407.613 625.201 418.646C625.201 429.68 624.329 440.509 622.655 451.071H419.847C411.888 451.071 405.437 444.619 405.437 436.66V400.634C405.437 392.674 411.888 386.222 419.847 386.222H622.655ZM587.305 299.758C601.095 319.147 611.601 341.033 618.016 364.606H418.647C410.688 364.606 404.236 358.154 404.236 350.196V314.169C404.236 306.211 410.688 299.758 418.647 299.758H587.305Z" fill="black"/>
<path fill-rule="evenodd" clip-rule="evenodd" d="M418.647 796.928C209.727 796.928 40.3643 627.566 40.3643 418.646C40.3643 209.727 209.727 40.3647 418.647 40.3647C627.565 40.3647 796.928 209.727 796.928 418.646C796.928 627.566 627.565 796.928 418.647 796.928ZM418.647 710.464C579.812 710.464 710.464 579.813 710.464 418.646C710.464 257.48 579.812 126.829 418.647 126.829C257.48 126.829 126.829 257.48 126.829 418.646C126.829 579.813 257.48 710.464 418.647 710.464Z" fill="black"/>
<path fill-rule="evenodd" clip-rule="evenodd" d="M404.237 314.169C404.237 306.211 410.689 299.758 418.647 299.758H587.305C589.592 302.973 591.789 306.258 593.892 309.607C596.997 314.554 599.898 319.643 602.582 324.862C606.173 331.844 609.376 339.059 612.161 346.478C614.383 352.396 616.34 358.443 618.016 364.606H418.647C410.689 364.606 404.237 358.154 404.237 350.196V314.169ZM371.329 376.553C366.974 368.753 364.493 359.765 364.493 350.196V314.169C364.493 304.602 366.974 295.613 371.329 287.812C367.722 280.557 365.694 272.38 365.694 263.731V227.704C365.694 197.803 389.931 173.549 419.847 173.549C490.337 173.549 553.928 203.358 598.589 250.944C602.554 255.168 605.462 260.105 607.249 265.38C612.094 268.19 616.356 272.03 619.694 276.723C636.144 299.854 648.699 325.992 656.366 354.171C657.552 358.528 657.972 362.997 657.663 367.393C659.731 371.238 661.192 375.478 661.909 379.998C663.909 392.608 664.945 405.518 664.945 418.647C664.945 431.775 663.909 444.685 661.909 457.295C661.192 461.815 659.731 466.055 657.663 469.9C657.972 474.296 657.552 478.765 656.366 483.122C648.699 511.301 636.144 537.439 619.694 560.57C616.356 565.263 612.094 569.103 607.249 571.913C605.462 577.188 602.554 582.125 598.589 586.349C553.928 633.935 490.337 663.744 419.847 663.744C389.931 663.744 365.694 639.49 365.694 609.589V573.562C365.694 564.457 367.941 555.875 371.912 548.343C367.941 540.81 365.694 532.229 365.694 523.124V487.098C365.694 477.992 367.941 469.411 371.912 461.879C367.941 454.347 365.694 445.766 365.694 436.661V400.634C365.694 391.984 367.722 383.807 371.329 376.553ZM405.438 436.661C405.438 444.619 411.889 451.071 419.847 451.071H622.656C623.572 445.292 624.248 439.433 624.672 433.504C625.023 428.597 625.201 423.643 625.201 418.647C625.201 413.65 625.023 408.696 624.672 403.789C624.248 397.86 623.572 392.001 622.656 386.222H419.847C419.443 386.222 419.043 386.239 418.647 386.271C411.25 386.881 405.438 393.078 405.438 400.634V436.661ZM405.438 523.124C405.438 531.082 411.889 537.535 419.847 537.535H587.305C589.592 534.32 591.789 531.036 593.892 527.686C596.997 522.739 599.898 517.65 602.582 512.431C606.173 505.449 609.376 498.234 612.161 490.815C614.383 484.897 616.34 478.85 618.016 472.687H419.847C411.889 472.687 405.438 479.139 405.438 487.098V523.124ZM569.609 559.15H419.847C411.889 559.15 405.438 565.603 405.438 573.562V609.589C405.438 617.548 411.889 624 419.847 624C455.528 624 489.084 614.9 518.319 598.894C529.659 592.686 540.35 585.438 550.262 577.279C557.095 571.655 563.558 565.598 569.609 559.15ZM405.438 263.731C405.438 271.286 411.25 277.483 418.647 278.093C419.043 278.126 419.443 278.143 419.847 278.143H569.609C563.558 271.695 557.095 265.638 550.262 260.014C540.35 251.855 529.659 244.607 518.319 238.399C489.084 222.393 455.528 213.293 419.847 213.293C411.889 213.293 405.438 219.745 405.438 227.704V263.731ZM418.647 836.672C187.778 836.672 0.621094 649.517 0.621094 418.647C0.621094 187.777 187.778 0.62085 418.647 0.62085C649.516 0.62085 836.673 187.777 836.673 418.647C836.673 649.516 649.516 836.672 418.647 836.672ZM418.647 670.72C557.863 670.72 670.72 557.863 670.72 418.647C670.72 279.43 557.863 166.573 418.647 166.573C279.431 166.573 166.573 279.43 166.573 418.647C166.573 557.863 279.431 670.72 418.647 670.72ZM40.3651 418.647C40.3651 627.566 209.728 796.928 418.647 796.928C627.566 796.928 796.929 627.566 796.929 418.647C796.929 209.727 627.566 40.3648 418.647 40.3648C209.728 40.3648 40.3651 209.727 40.3651 418.647ZM710.464 418.647C710.464 579.813 579.813 710.464 418.647 710.464C257.481 710.464 126.829 579.813 126.829 418.647C126.829 257.48 257.481 126.829 418.647 126.829C579.813 126.829 710.464 257.48 710.464 418.647Z" fill="white"/>
<path fill-rule="evenodd" clip-rule="evenodd" d="M670.72 418.647C670.72 557.863 557.863 670.72 418.647 670.72C279.431 670.72 166.573 557.863 166.573 418.647C166.573 279.43 279.431 166.573 418.647 166.573C557.863 166.573 670.72 279.43 670.72 418.647ZM371.329 376.553C366.974 368.753 364.493 359.765 364.493 350.196V314.169C364.493 304.602 366.974 295.613 371.329 287.812C367.722 280.557 365.694 272.38 365.694 263.731V227.704C365.694 197.803 389.931 173.549 419.847 173.549C490.337 173.549 553.928 203.358 598.589 250.944C602.554 255.168 605.462 260.105 607.249 265.38C612.094 268.19 616.356 272.03 619.694 276.723C636.144 299.854 648.699 325.992 656.366 354.171C657.552 358.528 657.972 362.997 657.663 367.393C659.731 371.238 661.192 375.478 661.909 379.998C663.909 392.608 664.945 405.518 664.945 418.647C664.945 431.775 663.909 444.685 661.909 457.295C661.192 461.815 659.731 466.055 657.663 469.9C657.972 474.296 657.552 478.765 656.366 483.122C648.699 511.301 636.144 537.439 619.694 560.57C616.356 565.263 612.094 569.103 607.249 571.913C605.462 577.188 602.554 582.125 598.589 586.349C553.928 633.935 490.337 663.744 419.847 663.744C389.931 663.744 365.694 639.49 365.694 609.589V573.562C365.694 564.457 367.941 555.875 371.912 548.343C367.941 540.81 365.694 532.229 365.694 523.124V487.098C365.694 477.992 367.941 469.411 371.912 461.879C367.941 454.347 365.694 445.766 365.694 436.661V400.634C365.694 391.984 367.722 383.807 371.329 376.553Z" fill="white"/>
</svg>
