<svg width="100%" height="100%" viewBox="0 0 206 206" fill="none" xmlns="http://www.w3.org/2000/svg">
<path d="M0 60C0 31.7157 0 17.5736 8.7868 8.7868C17.5736 0 31.7157 0 60 0H146C174.284 0 188.426 0 197.213 8.7868C206 17.5736 206 31.7157 206 60V146C206 174.284 206 188.426 197.213 197.213C188.426 206 174.284 206 146 206H60C31.7157 206 17.5736 206 8.7868 197.213C0 188.426 0 174.284 0 146V60Z" fill="url(#paint0_radial_2083_88)"/>
<path d="M70.5343 175C76.5128 170.125 81.0159 164.548 84.0436 158.268C87.2701 151.576 88.5232 144.568 87.8028 137.245C87.1867 129.841 84.2869 122.697 79.1033 115.813L77.5482 113.748C72.3646 106.864 66.4247 102.159 59.7286 99.6337C53.0571 96.9212 46.0622 96.304 38.7438 97.7819C31.8926 98.9947 25.3114 101.922 19 106.564L30.8152 122.254C35.7534 119.138 40.6885 117.757 45.6206 118.111C51.5628 118.537 56.6472 121.557 60.8739 127.17L62.0701 128.759C66.217 134.266 67.7118 139.983 66.5545 145.91C65.5939 150.83 62.9821 155.297 58.719 159.31L70.5343 175Z" fill="white"/>
<path d="M119.534 141C125.513 136.188 130.016 130.682 133.044 124.483C136.27 117.876 137.523 110.958 136.803 103.729C136.187 96.4196 133.287 89.3672 128.103 82.5717L126.548 80.5331C121.365 73.7376 115.425 69.0932 108.729 66.5999C102.057 63.9222 95.0622 63.3129 87.7438 64.7719C80.8926 65.9691 74.3114 68.8588 68 73.4409L79.8152 88.9301C84.7534 85.8537 89.6885 84.4904 94.6206 84.8401C100.563 85.2613 105.647 88.2425 109.874 93.7834L111.07 95.3516C115.217 100.788 116.712 106.432 115.554 112.283C114.594 117.14 111.982 121.549 107.719 125.511L119.534 141Z" fill="white"/>
<path d="M168.534 108C174.513 103.188 179.016 97.6823 182.044 91.4829C185.27 84.8764 186.523 77.9585 185.803 70.729C185.187 63.4196 182.287 56.3672 177.103 49.5717L175.548 47.5331C170.365 40.7376 164.425 36.0932 157.729 33.5999C151.057 30.9222 144.062 30.3129 136.744 31.7719C129.893 32.9692 123.311 35.8588 117 40.4409L128.815 55.9301C133.753 52.8537 138.689 51.4904 143.621 51.8401C149.563 52.2613 154.647 55.2424 158.874 60.7834L160.07 62.3516C164.217 67.788 165.712 73.4319 164.554 79.2834C163.594 84.1402 160.982 88.5493 156.719 92.5107L168.534 108Z" fill="white"/>
<defs>
<radialGradient id="paint0_radial_2083_88" cx="0" cy="0" r="1" gradientUnits="userSpaceOnUse" gradientTransform="translate(103 103) rotate(45) scale(145.664)">
<stop offset="0.445" stop-color="#E35B27"/>
<stop offset="0.760189" stop-color="#E56534"/>
<stop offset="1" stop-color="#E97D53"/>
</radialGradient>
</defs>
</svg>
